<?xml version="1.0" encoding="UTF-8" standalone="no"?>
<!-- Created with Inkscape (http://www.inkscape.org/) -->

<svg
   xmlns:dc="http://purl.org/dc/elements/1.1/"
   xmlns:cc="http://creativecommons.org/ns#"
   xmlns:rdf="http://www.w3.org/1999/02/22-rdf-syntax-ns#"
   xmlns:svg="http://www.w3.org/2000/svg"
   xmlns="http://www.w3.org/2000/svg"
   xmlns:sodipodi="http://sodipodi.sourceforge.net/DTD/sodipodi-0.dtd"
   xmlns:inkscape="http://www.inkscape.org/namespaces/inkscape"
   id="svg2"
   version="1.1"
   inkscape:version="0.91 r13725"
   xml:space="preserve"
   width="1500"
   height="700"
   viewBox="0 0 1500 700"
   sodipodi:docname="OPUS-LOGO-V8.ai.svg"><metadata
     id="metadata8"><rdf:RDF><cc:Work
         rdf:about=""><dc:format>image/svg+xml</dc:format><dc:type
           rdf:resource="http://purl.org/dc/dcmitype/StillImage" /><dc:title></dc:title></cc:Work></rdf:RDF></metadata><defs
     id="defs6"><clipPath
       clipPathUnits="userSpaceOnUse"
       id="clipPath16"><path
         d="M 0,560 1200,560 1200,0 0,0 0,560 Z"
         id="path18"
         inkscape:connector-curvature="0" /></clipPath><clipPath
       clipPathUnits="userSpaceOnUse"
       id="clipPath24"><path
         d="m 157,462.896 293.839,0 0,-293.838 -293.839,0 0,293.838 z"
         id="path26"
         inkscape:connector-curvature="0" /></clipPath><clipPath
       clipPathUnits="userSpaceOnUse"
       id="clipPath40"><path
         d="m 196.964,462.609 293.839,0 0,-293.839 -293.839,0 0,293.839 z"
         id="path42"
         inkscape:connector-curvature="0" /></clipPath><clipPath
       clipPathUnits="userSpaceOnUse"
       id="clipPath56"><path
         d="m 157.721,423.057 293.839,0 0,-293.839 -293.839,0 0,293.839 z"
         id="path58"
         inkscape:connector-curvature="0" /></clipPath><clipPath
       clipPathUnits="userSpaceOnUse"
       id="clipPath72"><path
         d="m 197.689,423.057 293.84,0 0,-293.839 -293.84,0 0,293.839 z"
         id="path74"
         inkscape:connector-curvature="0" /></clipPath></defs><sodipodi:namedview
     pagecolor="#ffffff"
     bordercolor="#666666"
     borderopacity="1"
     objecttolerance="10"
     gridtolerance="10"
     guidetolerance="10"
     inkscape:pageopacity="0"
     inkscape:pageshadow="2"
     inkscape:window-width="1920"
     inkscape:window-height="1163"
     id="namedview4"
     showgrid="false"
     inkscape:zoom="0.23066667"
     inkscape:cx="758.67052"
     inkscape:cy="350"
     inkscape:window-x="0"
     inkscape:window-y="0"
     inkscape:window-maximized="1"
     inkscape:current-layer="g10" /><g
     id="g10"
     inkscape:groupmode="layer"
     inkscape:label="OPUS-LOGO-V8"
     transform="matrix(1.25,0,0,-1.25,0,700)"><g
       id="g12"><g
         id="g14"
         clip-path="url(#clipPath16)"><g
           id="g20"><g
             id="g22" /><g
             id="g28"><g
               clip-path="url(#clipPath24)"
               id="g30"><g
                 transform="translate(303.9194,422.8965)"
                 id="g32"><path
                   d="m 0,0 c -58.956,0 -106.919,-47.964 -106.919,-106.919 0,-58.956 47.963,-106.92 106.919,-106.92 58.956,0 106.919,47.964 106.919,106.92 C 106.919,-47.964 58.956,0 0,0 m 0,-253.839 c -81.012,0 -146.919,65.908 -146.919,146.92 C -146.919,-25.908 -81.012,40 0,40 c 81.012,0 146.919,-65.908 146.919,-146.919 0,-81.012 -65.907,-146.92 -146.919,-146.92"
                   style="fill:#45b3d5;fill-opacity:1;fill-rule:nonzero;stroke:none"
                   id="path34"
                   inkscape:connector-curvature="0" /></g></g></g></g><g
           id="g36"><g
             id="g38" /><g
             id="g44"><g
               clip-path="url(#clipPath40)"
               id="g46"><g
                 transform="translate(343.8833,422.6089)"
                 id="g48"><path
                   d="m 0,0 c -58.956,0 -106.919,-47.964 -106.919,-106.919 0,-58.956 47.963,-106.92 106.919,-106.92 58.956,0 106.919,47.964 106.919,106.92 C 106.919,-47.964 58.956,0 0,0 m 0,-253.839 c -81.012,0 -146.919,65.908 -146.919,146.92 C -146.919,-25.908 -81.012,40 0,40 c 81.012,0 146.919,-65.908 146.919,-146.919 0,-81.012 -65.907,-146.92 -146.919,-146.92"
                   style="fill:#66c430;fill-opacity:1;fill-rule:nonzero;stroke:none"
                   id="path50"
                   inkscape:connector-curvature="0" /></g></g></g></g><g
           id="g52"><g
             id="g54" /><g
             id="g60"><g
               clip-path="url(#clipPath56)"
               id="g62"><g
                 transform="translate(304.6401,383.0571)"
                 id="g64"><path
                   d="m 0,0 c -58.956,0 -106.919,-47.964 -106.919,-106.919 0,-58.956 47.963,-106.92 106.919,-106.92 58.956,0 106.919,47.964 106.919,106.92 C 106.919,-47.964 58.956,0 0,0 m 0,-253.839 c -81.012,0 -146.919,65.908 -146.919,146.92 C -146.919,-25.908 -81.012,40 0,40 c 81.012,0 146.919,-65.908 146.919,-146.919 0,-81.012 -65.907,-146.92 -146.919,-146.92"
                   style="fill:#ef289e;fill-opacity:1;fill-rule:nonzero;stroke:none"
                   id="path66"
                   inkscape:connector-curvature="0" /></g></g></g></g><g
           id="g68"><g
             id="g70" /><g
             id="g76"><g
               clip-path="url(#clipPath72)"
               id="g78"><g
                 transform="translate(344.6094,383.0571)"
                 id="g80"><path
                   d="m 0,0 c -58.956,0 -106.92,-47.964 -106.92,-106.919 0,-58.956 47.964,-106.92 106.92,-106.92 58.956,0 106.919,47.964 106.919,106.92 C 106.919,-47.964 58.956,0 0,0 m 0,-253.839 c -81.012,0 -146.92,65.908 -146.92,146.92 C -146.92,-25.908 -81.012,40 0,40 c 81.012,0 146.919,-65.908 146.919,-146.919 0,-81.012 -65.907,-146.92 -146.919,-146.92"
                   style="fill:#f89a19;fill-opacity:1;fill-rule:nonzero;stroke:none"
                   id="path82"
                   inkscape:connector-curvature="0" /></g></g></g></g><g
           id="g84"
           transform="translate(553.1006,350.1636)"><path
             d="m 0,0 c 0,-7.423 1.138,-14.229 3.418,-20.414 2.277,-6.187 5.534,-11.559 9.768,-16.116 4.231,-4.56 9.245,-8.107 15.042,-10.646 5.793,-2.54 12.209,-3.809 19.241,-3.809 7.032,0 13.478,1.269 19.34,3.809 5.86,2.539 10.905,6.086 15.138,10.646 4.231,4.557 7.488,9.929 9.768,16.116 2.277,6.185 3.419,12.991 3.419,20.414 0,7.161 -1.142,13.803 -3.419,19.925 -2.28,6.12 -5.503,11.459 -9.67,16.019 -4.169,4.557 -9.181,8.138 -15.041,10.744 -5.861,2.604 -12.374,3.907 -19.535,3.907 -7.164,0 -13.643,-1.303 -19.437,-3.907 C 22.236,44.082 17.254,40.501 13.088,35.944 8.919,31.384 5.695,26.045 3.418,19.925 1.138,13.803 0,7.161 0,0 m -26.763,0 c 0,11.068 1.856,21.064 5.568,29.986 3.711,8.919 8.855,16.507 15.432,22.758 6.575,6.251 14.388,11.068 23.442,14.456 9.05,3.384 18.915,5.078 29.595,5.078 10.808,0 20.77,-1.694 29.887,-5.078 9.114,-3.388 16.995,-8.205 23.638,-14.456 6.641,-6.251 11.818,-13.839 15.529,-22.758 3.712,-8.922 5.568,-18.918 5.568,-29.986 0,-10.811 -1.856,-20.676 -5.568,-29.595 -3.711,-8.922 -8.888,-16.605 -15.529,-23.051 -6.643,-6.446 -14.524,-11.461 -23.638,-15.042 -9.117,-3.58 -19.079,-5.372 -29.887,-5.372 -10.68,0 -20.545,1.792 -29.595,5.372 -9.054,3.581 -16.867,8.596 -23.442,15.042 -6.577,6.446 -11.721,14.129 -15.432,23.051 -3.712,8.919 -5.568,18.784 -5.568,29.595"
             style="fill:#e2077a;fill-opacity:1;fill-rule:nonzero;stroke:none"
             id="path86"
             inkscape:connector-curvature="0" /></g><g
           id="g88"
           transform="translate(730.8652,358.5635)"><path
             d="m 0,0 c 4.035,0 7.878,0.293 11.525,0.879 3.645,0.586 6.902,1.627 9.768,3.126 2.863,1.495 5.144,3.546 6.837,6.153 1.691,2.604 2.54,5.989 2.54,10.158 0,4.036 -0.849,7.326 -2.54,9.865 -1.693,2.54 -3.941,4.524 -6.739,5.958 -2.802,1.432 -5.992,2.375 -9.573,2.833 -3.583,0.455 -7.26,0.684 -11.037,0.684 l -17.971,0 L -17.19,0 0,0 Z m -41.804,60.362 45.125,0 c 7.943,0 15.106,-0.717 21.489,-2.149 6.378,-1.434 11.848,-3.778 16.409,-7.032 4.556,-3.257 8.073,-7.423 10.549,-12.502 2.471,-5.079 3.711,-11.202 3.711,-18.363 0,-7.686 -1.435,-14.132 -4.297,-19.339 -2.867,-5.21 -6.741,-9.411 -11.623,-12.6 -4.884,-3.193 -10.583,-5.503 -17.094,-6.935 -6.514,-1.434 -13.414,-2.149 -20.706,-2.149 l -18.949,0 0,-57.236 -24.614,0 0,138.305 z"
             style="fill:#e2077a;fill-opacity:1;fill-rule:nonzero;stroke:none"
             id="path90"
             inkscape:connector-curvature="0" /></g><g
           id="g92"
           transform="translate(908.6289,331.4102)"><path
             d="m 0,0 c 0,-8.335 -1.435,-15.856 -4.298,-22.562 -2.866,-6.709 -6.773,-12.405 -11.721,-17.093 -4.951,-4.689 -10.811,-8.303 -17.581,-10.842 -6.773,-2.54 -14.132,-3.809 -22.074,-3.809 -7.945,0 -15.305,1.269 -22.074,3.809 -6.773,2.539 -12.667,6.153 -17.68,10.842 -5.014,4.688 -8.922,10.384 -11.72,17.093 -2.802,6.706 -4.2,14.227 -4.2,22.562 l 0,87.516 24.614,0 0,-86.539 c 0,-4.038 0.518,-8.043 1.562,-12.014 1.041,-3.974 2.766,-7.521 5.177,-10.646 2.408,-3.126 5.598,-5.666 9.572,-7.619 3.971,-1.953 8.889,-2.93 14.749,-2.93 5.861,0 10.775,0.977 14.748,2.93 3.972,1.953 7.161,4.493 9.572,7.619 2.409,3.125 4.133,6.672 5.177,10.646 1.041,3.971 1.563,7.976 1.563,12.014 l 0,86.539 L 0,87.516 0,0 Z"
             style="fill:#e2077a;fill-opacity:1;fill-rule:nonzero;stroke:none"
             id="path94"
             inkscape:connector-curvature="0" /></g><g
           id="g96"
           transform="translate(998.6826,390.0146)"><path
             d="m 0,0 c -2.607,3.385 -6.285,6.217 -11.037,8.498 -4.756,2.276 -9.542,3.418 -14.359,3.418 -2.866,0 -5.732,-0.36 -8.595,-1.074 -2.866,-0.717 -5.47,-1.826 -7.814,-3.321 -2.343,-1.499 -4.267,-3.453 -5.762,-5.861 -1.499,-2.411 -2.246,-5.307 -2.246,-8.693 0,-3.125 0.649,-5.796 1.953,-8.009 1.299,-2.216 3.091,-4.102 5.372,-5.665 2.277,-1.563 5.045,-2.93 8.301,-4.102 3.254,-1.172 6.838,-2.344 10.745,-3.517 4.425,-1.434 9.016,-3.061 13.772,-4.883 4.752,-1.826 9.114,-4.234 13.088,-7.228 3.972,-2.998 7.228,-6.773 9.768,-11.33 2.539,-4.56 3.809,-10.225 3.809,-16.995 0,-7.424 -1.368,-13.904 -4.102,-19.437 -2.736,-5.537 -6.383,-10.128 -10.94,-13.772 -4.56,-3.648 -9.898,-6.383 -16.018,-8.205 -6.123,-1.822 -12.57,-2.735 -19.34,-2.735 -8.986,0 -17.777,1.661 -26.371,4.982 -8.596,3.321 -15.628,8.235 -21.098,14.748 l 17.581,16.41 c 3.385,-4.689 7.912,-8.4 13.577,-11.135 5.665,-2.735 11.233,-4.103 16.702,-4.103 2.863,0 5.793,0.358 8.79,1.075 2.995,0.714 5.696,1.92 8.108,3.614 2.408,1.691 4.361,3.809 5.86,6.348 1.495,2.54 2.246,5.696 2.246,9.475 0,3.644 -0.848,6.672 -2.539,9.083 -1.694,2.409 -3.974,4.494 -6.838,6.251 -2.866,1.759 -6.251,3.288 -10.157,4.591 -3.907,1.301 -8.01,2.668 -12.308,4.102 -4.169,1.301 -8.336,2.864 -12.502,4.689 -4.168,1.822 -7.911,4.23 -11.232,7.228 -3.321,2.994 -6.025,6.672 -8.106,11.037 -2.085,4.362 -3.126,9.798 -3.126,16.311 0,7.033 1.464,13.088 4.395,18.167 2.93,5.08 6.77,9.28 11.526,12.6 4.751,3.321 10.158,5.793 16.213,7.424 6.056,1.626 12.209,2.441 18.46,2.441 7.033,0 14.163,-1.239 21.391,-3.711 7.228,-2.476 13.51,-6.187 18.851,-11.135 L 0,0 Z"
             style="fill:#e2077a;fill-opacity:1;fill-rule:nonzero;stroke:none"
             id="path98"
             inkscape:connector-curvature="0" /></g><g
           id="g100"
           transform="translate(563.1802,229.0073)"><path
             d="m 0,0 c 0,2.543 -0.411,4.747 -1.232,6.611 -0.822,1.864 -1.995,3.273 -3.519,4.229 -1.524,0.956 -3.274,1.434 -5.249,1.434 -1.405,0 -2.705,-0.265 -3.897,-0.794 -1.193,-0.529 -2.22,-1.299 -3.081,-2.31 -0.86,-1.011 -1.54,-2.303 -2.037,-3.875 -0.498,-1.571 -0.747,-3.337 -0.747,-5.295 0,-1.975 0.249,-3.76 0.747,-5.355 0.497,-1.596 1.2,-2.919 2.109,-3.969 0.908,-1.051 1.95,-1.837 3.127,-2.358 1.177,-0.521 2.468,-0.782 3.875,-0.782 1.8,0 3.455,0.45 4.964,1.351 1.508,0.9 2.709,2.29 3.601,4.17 C -0.446,-5.063 0,-2.749 0,0 m -10,17.866 c 3.603,0 6.694,-0.731 9.277,-2.192 2.583,-1.461 4.538,-3.539 5.865,-6.232 1.327,-2.693 1.99,-5.857 1.99,-9.489 0,-2.686 -0.363,-5.127 -1.09,-7.322 -0.727,-2.196 -1.816,-4.1 -3.27,-5.711 -1.453,-1.611 -3.238,-2.843 -5.355,-3.696 -2.117,-0.853 -4.542,-1.28 -7.274,-1.28 -2.717,0 -5.15,0.439 -7.298,1.315 -2.149,0.877 -3.942,2.113 -5.379,3.709 -1.438,1.595 -2.524,3.514 -3.258,5.758 -0.734,2.242 -1.102,4.668 -1.102,7.274 0,2.669 0.383,5.118 1.149,7.345 0.766,2.228 1.876,4.123 3.329,5.687 1.454,1.564 3.223,2.76 5.308,3.59 2.086,0.829 4.455,1.244 7.108,1.244"
             style="fill:#252323;fill-opacity:1;fill-rule:nonzero;stroke:none"
             id="path102"
             inkscape:connector-curvature="0" /></g><g
           id="g104"
           transform="translate(614.3799,223.6284)"><path
             d="m 0,0 0,-8.601 c 0,-1.359 -0.309,-2.378 -0.925,-3.057 -0.616,-0.679 -1.429,-1.019 -2.44,-1.019 -0.98,0 -1.774,0.34 -2.381,1.019 -0.608,0.679 -0.913,1.698 -0.913,3.057 l 0,10.307 c 0,1.627 -0.055,2.891 -0.165,3.791 -0.112,0.9 -0.411,1.639 -0.901,2.216 -0.49,0.576 -1.264,0.865 -2.322,0.865 -2.117,0 -3.51,-0.727 -4.182,-2.181 -0.671,-1.453 -1.007,-3.538 -1.007,-6.255 l 0,-8.743 c 0,-1.343 -0.305,-2.358 -0.912,-3.045 -0.608,-0.687 -1.41,-1.031 -2.405,-1.031 -0.98,0 -1.781,0.344 -2.405,1.031 -0.625,0.687 -0.936,1.702 -0.936,3.045 l 0,18.505 c 0,1.217 0.28,2.141 0.841,2.773 0.56,0.632 1.3,0.948 2.216,0.948 0.884,0 1.623,-0.296 2.215,-0.889 0.592,-0.592 0.889,-1.41 0.889,-2.452 l 0,-0.617 c 1.121,1.343 2.321,2.331 3.601,2.962 1.279,0.632 2.701,0.948 4.265,0.948 1.627,0 3.024,-0.324 4.194,-0.972 1.169,-0.647 2.132,-1.626 2.891,-2.938 1.09,1.328 2.259,2.311 3.507,2.951 1.248,0.639 2.629,0.959 4.146,0.959 1.769,0 3.294,-0.348 4.573,-1.042 1.28,-0.696 2.236,-1.691 2.868,-2.986 0.552,-1.169 0.829,-3.009 0.829,-5.521 l 0,-12.629 c 0,-1.359 -0.308,-2.378 -0.924,-3.057 -0.616,-0.679 -1.43,-1.019 -2.441,-1.019 -0.98,0 -1.781,0.344 -2.405,1.031 -0.624,0.687 -0.936,1.702 -0.936,3.045 l 0,10.876 c 0,1.39 -0.059,2.503 -0.178,3.341 C 8.139,6.453 7.819,7.156 7.298,7.725 6.776,8.293 5.986,8.578 4.928,8.578 4.075,8.578 3.266,8.325 2.499,7.819 1.733,7.313 1.137,6.635 0.71,5.782 0.236,4.691 0,2.764 0,0"
             style="fill:#252323;fill-opacity:1;fill-rule:nonzero;stroke:none"
             id="path106"
             inkscape:connector-curvature="0" /></g><g
           id="g108"
           transform="translate(658.6611,233.6748)"><path
             d="m 0,0 0,-0.782 c 1.137,1.501 2.381,2.603 3.731,3.306 1.351,0.703 2.903,1.054 4.657,1.054 1.706,0 3.23,-0.371 4.573,-1.114 1.342,-0.742 2.346,-1.793 3.009,-3.151 0.426,-0.79 0.703,-1.643 0.829,-2.559 0.127,-0.916 0.19,-2.085 0.19,-3.507 l 0,-12.037 c 0,-1.295 -0.297,-2.274 -0.888,-2.938 -0.593,-0.664 -1.363,-0.995 -2.311,-0.995 -0.964,0 -1.746,0.34 -2.346,1.018 -0.6,0.68 -0.9,1.651 -0.9,2.915 l 0,10.781 c 0,2.133 -0.296,3.764 -0.889,4.893 -0.592,1.13 -1.773,1.695 -3.542,1.695 -1.153,0 -2.204,-0.344 -3.151,-1.031 C 2.014,-3.139 1.318,-4.083 0.876,-5.284 0.561,-6.248 0.402,-8.048 0.402,-10.686 l 0,-8.104 c 0,-1.311 -0.304,-2.294 -0.912,-2.95 -0.608,-0.655 -1.394,-0.983 -2.357,-0.983 -0.933,0 -1.698,0.34 -2.299,1.018 -0.601,0.68 -0.9,1.651 -0.9,2.915 l 0,18.695 c 0,1.233 0.268,2.153 0.805,2.761 0.537,0.608 1.272,0.912 2.204,0.912 0.569,0 1.081,-0.134 1.54,-0.403 C -1.059,2.907 -0.691,2.504 -0.415,1.967 -0.139,1.43 0,0.774 0,0"
             style="fill:#252323;fill-opacity:1;fill-rule:nonzero;stroke:none"
             id="path110"
             inkscape:connector-curvature="0" /></g><g
           id="g112"
           transform="translate(705.5488,233.5801)"><path
             d="m 0,0 0,-18.695 c 0,-1.296 -0.308,-2.275 -0.924,-2.938 -0.616,-0.664 -1.398,-0.995 -2.346,-0.995 -0.948,0 -1.717,0.339 -2.31,1.018 -0.593,0.679 -0.889,1.651 -0.889,2.915 l 0,18.506 c 0,1.279 0.296,2.243 0.889,2.89 0.593,0.648 1.362,0.972 2.31,0.972 0.948,0 1.73,-0.324 2.346,-0.972 C -0.308,2.054 0,1.153 0,0 m -3.198,6.682 c -0.901,0 -1.671,0.276 -2.311,0.83 -0.639,0.552 -0.96,1.334 -0.96,2.345 0,0.916 0.328,1.671 0.984,2.263 0.655,0.592 1.418,0.889 2.287,0.889 0.837,0 1.579,-0.269 2.226,-0.806 C -0.324,11.666 0,10.884 0,9.857 0,8.862 -0.316,8.084 -0.947,7.523 -1.58,6.962 -2.33,6.682 -3.198,6.682"
             style="fill:#252323;fill-opacity:1;fill-rule:nonzero;stroke:none"
             id="path114"
             inkscape:connector-curvature="0" /></g><g
           id="g116"
           transform="translate(752.4121,218.9604)"><path
             d="m 0,0 c 0,-0.806 -0.241,-1.667 -0.723,-2.583 -0.481,-0.916 -1.216,-1.789 -2.203,-2.618 -0.987,-0.829 -2.231,-1.497 -3.732,-2.002 -1.501,-0.505 -3.191,-0.758 -5.071,-0.758 -3.997,0 -7.117,1.164 -9.359,3.495 -2.243,2.329 -3.365,5.453 -3.365,9.371 0,2.654 0.514,4.999 1.54,7.037 1.027,2.038 2.512,3.614 4.455,4.727 1.943,1.114 4.265,1.671 6.966,1.671 1.675,0 3.211,-0.245 4.609,-0.735 1.398,-0.489 2.582,-1.122 3.554,-1.895 0.972,-0.774 1.714,-1.6 2.227,-2.476 0.513,-0.877 0.771,-1.694 0.771,-2.453 0,-0.774 -0.289,-1.429 -0.865,-1.967 -0.577,-0.537 -1.276,-0.805 -2.097,-0.805 -0.537,0 -0.983,0.138 -1.339,0.414 -0.355,0.277 -0.755,0.723 -1.197,1.339 -0.79,1.2 -1.615,2.101 -2.476,2.701 -0.861,0.601 -1.955,0.901 -3.282,0.901 -1.911,0 -3.451,-0.746 -4.62,-2.239 C -17.376,9.632 -17.961,7.59 -17.961,5 c 0,-1.217 0.15,-2.334 0.45,-3.353 0.301,-1.019 0.736,-1.888 1.304,-2.606 0.568,-0.72 1.256,-1.265 2.061,-1.636 0.806,-0.371 1.691,-0.556 2.654,-0.556 1.296,0 2.405,0.299 3.329,0.9 0.925,0.6 1.742,1.517 2.453,2.749 0.395,0.726 0.821,1.294 1.279,1.706 0.458,0.41 1.019,0.616 1.683,0.616 0.789,0 1.445,-0.3 1.967,-0.901 C -0.261,1.319 0,0.679 0,0"
             style="fill:#252323;fill-opacity:1;fill-rule:nonzero;stroke:none"
             id="path118"
             inkscape:connector-curvature="0" /></g><g
           id="g120"
           transform="translate(780.1553,242.9399)"><path
             d="m 0,0 0,-9.597 c 0.82,0.948 1.623,1.698 2.404,2.251 0.783,0.553 1.648,0.968 2.595,1.244 0.948,0.277 1.967,0.415 3.057,0.415 1.642,0 3.1,-0.348 4.372,-1.042 1.271,-0.696 2.27,-1.707 2.997,-3.034 0.458,-0.774 0.766,-1.638 0.924,-2.594 0.158,-0.956 0.237,-2.058 0.237,-3.306 l 0,-12.392 c 0,-1.296 -0.296,-2.275 -0.889,-2.938 -0.592,-0.664 -1.378,-0.995 -2.357,-0.995 -2.133,0 -3.199,1.311 -3.199,3.933 l 0,10.923 c 0,2.069 -0.308,3.661 -0.924,4.775 -0.616,1.113 -1.785,1.67 -3.507,1.67 -1.153,0 -2.191,-0.328 -3.116,-0.983 C 1.67,-12.326 0.979,-13.222 0.521,-14.359 0.173,-15.323 0,-17.037 0,-19.501 l 0,-8.554 c 0,-1.279 -0.289,-2.255 -0.865,-2.926 -0.577,-0.671 -1.379,-1.007 -2.406,-1.007 -2.132,0 -3.198,1.311 -3.198,3.933 l 0,28.055 c 0,1.311 0.281,2.294 0.841,2.95 0.561,0.655 1.347,0.983 2.357,0.983 1.027,0 1.829,-0.331 2.406,-0.995 C -0.289,2.274 0,1.295 0,0"
             style="fill:#252323;fill-opacity:1;fill-rule:nonzero;stroke:none"
             id="path122"
             inkscape:connector-curvature="0" /></g><g
           id="g124"
           transform="translate(836.0459,223.96)"><path
             d="m 0,0 c -0.947,-0.348 -2.326,-0.715 -4.135,-1.102 -1.808,-0.387 -3.06,-0.671 -3.755,-0.853 -0.695,-0.181 -1.359,-0.537 -1.991,-1.066 -0.632,-0.529 -0.947,-1.268 -0.947,-2.215 0,-0.98 0.371,-1.813 1.113,-2.5 0.742,-0.687 1.714,-1.031 2.915,-1.031 1.279,0 2.46,0.28 3.542,0.841 1.082,0.561 1.876,1.283 2.382,2.168 C -0.292,-4.778 0,-3.167 0,-0.924 L 0,0 Z m 0.427,-9.359 c -1.564,-1.217 -3.076,-2.129 -4.537,-2.737 -1.462,-0.608 -3.101,-0.912 -4.917,-0.912 -1.66,0 -3.117,0.328 -4.372,0.983 -1.256,0.655 -2.224,1.544 -2.903,2.666 -0.679,1.121 -1.018,2.338 -1.018,3.649 0,1.769 0.56,3.277 1.681,4.525 1.122,1.248 2.662,2.085 4.621,2.512 0.411,0.095 1.43,0.308 3.057,0.64 1.627,0.331 3.021,0.636 4.182,0.912 1.161,0.276 2.421,0.612 3.779,1.007 -0.079,1.706 -0.423,2.958 -1.03,3.756 -0.609,0.797 -1.868,1.196 -3.78,1.196 -1.643,0 -2.878,-0.229 -3.708,-0.687 -0.83,-0.458 -1.541,-1.145 -2.132,-2.061 -0.593,-0.917 -1.012,-1.521 -1.256,-1.813 -0.245,-0.293 -0.771,-0.438 -1.576,-0.438 -0.727,0 -1.355,0.233 -1.884,0.699 -0.53,0.465 -0.793,1.062 -0.793,1.789 0,1.137 0.402,2.242 1.208,3.317 0.805,1.074 2.061,1.959 3.767,2.654 1.706,0.695 3.83,1.042 6.374,1.042 2.843,0 5.079,-0.336 6.706,-1.007 C 3.522,11.662 4.672,10.6 5.344,9.146 6.015,7.693 6.351,5.766 6.351,3.365 6.351,1.848 6.347,0.561 6.339,-0.498 6.331,-1.556 6.318,-2.733 6.303,-4.028 c 0,-1.217 0.202,-2.484 0.604,-3.803 0.404,-1.319 0.605,-2.168 0.605,-2.547 0,-0.664 -0.313,-1.268 -0.936,-1.813 -0.625,-0.545 -1.331,-0.817 -2.121,-0.817 -0.663,0 -1.319,0.312 -1.967,0.936 -0.647,0.623 -1.335,1.528 -2.061,2.713"
             style="fill:#252323;fill-opacity:1;fill-rule:nonzero;stroke:none"
             id="path126"
             inkscape:connector-curvature="0" /></g><g
           id="g128"
           transform="translate(871.8213,233.6748)"><path
             d="m 0,0 0,-0.782 c 1.137,1.501 2.381,2.603 3.731,3.306 1.351,0.703 2.903,1.054 4.657,1.054 1.706,0 3.23,-0.371 4.573,-1.114 1.342,-0.742 2.346,-1.793 3.009,-3.151 0.426,-0.79 0.703,-1.643 0.829,-2.559 0.127,-0.916 0.19,-2.085 0.19,-3.507 l 0,-12.037 c 0,-1.295 -0.297,-2.274 -0.888,-2.938 -0.593,-0.664 -1.363,-0.995 -2.311,-0.995 -0.964,0 -1.746,0.34 -2.346,1.018 -0.6,0.68 -0.9,1.651 -0.9,2.915 l 0,10.781 c 0,2.133 -0.296,3.764 -0.889,4.893 -0.592,1.13 -1.773,1.695 -3.542,1.695 -1.153,0 -2.204,-0.344 -3.151,-1.031 C 2.014,-3.139 1.318,-4.083 0.876,-5.284 0.561,-6.248 0.402,-8.048 0.402,-10.686 l 0,-8.104 c 0,-1.311 -0.304,-2.294 -0.912,-2.95 -0.608,-0.655 -1.394,-0.983 -2.357,-0.983 -0.933,0 -1.698,0.34 -2.299,1.018 -0.601,0.68 -0.9,1.651 -0.9,2.915 l 0,18.695 c 0,1.233 0.268,2.153 0.805,2.761 0.537,0.608 1.272,0.912 2.204,0.912 0.569,0 1.081,-0.134 1.54,-0.403 C -1.059,2.907 -0.691,2.504 -0.415,1.967 -0.139,1.43 0,0.774 0,0"
             style="fill:#252323;fill-opacity:1;fill-rule:nonzero;stroke:none"
             id="path130"
             inkscape:connector-curvature="0" /></g><g
           id="g132"
           transform="translate(918.1162,233.6748)"><path
             d="m 0,0 0,-0.782 c 1.137,1.501 2.381,2.603 3.731,3.306 1.351,0.703 2.903,1.054 4.657,1.054 1.706,0 3.23,-0.371 4.573,-1.114 1.342,-0.742 2.346,-1.793 3.009,-3.151 0.426,-0.79 0.703,-1.643 0.829,-2.559 0.127,-0.916 0.19,-2.085 0.19,-3.507 l 0,-12.037 c 0,-1.295 -0.297,-2.274 -0.888,-2.938 -0.593,-0.664 -1.363,-0.995 -2.311,-0.995 -0.964,0 -1.746,0.34 -2.346,1.018 -0.6,0.68 -0.9,1.651 -0.9,2.915 l 0,10.781 c 0,2.133 -0.296,3.764 -0.889,4.893 -0.592,1.13 -1.773,1.695 -3.542,1.695 -1.153,0 -2.204,-0.344 -3.151,-1.031 C 2.014,-3.139 1.318,-4.083 0.876,-5.284 0.561,-6.248 0.402,-8.048 0.402,-10.686 l 0,-8.104 c 0,-1.311 -0.304,-2.294 -0.912,-2.95 -0.608,-0.655 -1.394,-0.983 -2.357,-0.983 -0.933,0 -1.698,0.34 -2.299,1.018 -0.601,0.68 -0.9,1.651 -0.9,2.915 l 0,18.695 c 0,1.233 0.268,2.153 0.805,2.761 0.537,0.608 1.272,0.912 2.204,0.912 0.569,0 1.081,-0.134 1.54,-0.403 C -1.059,2.907 -0.691,2.504 -0.415,1.967 -0.139,1.43 0,0.774 0,0"
             style="fill:#252323;fill-opacity:1;fill-rule:nonzero;stroke:none"
             id="path134"
             inkscape:connector-curvature="0" /></g><g
           id="g136"
           transform="translate(963.9375,226.1875)"><path
             d="M 0,0 11.729,0 C 11.571,2.211 10.975,3.866 9.94,4.964 8.905,6.062 7.543,6.611 5.853,6.611 4.241,6.611 2.919,6.054 1.884,4.94 0.85,3.827 0.222,2.18 0,0 M 12.653,-3.673 0,-3.673 c 0.016,-1.469 0.312,-2.764 0.889,-3.886 0.576,-1.122 1.342,-1.966 2.299,-2.535 0.955,-0.569 2.009,-0.853 3.163,-0.853 0.773,0 1.48,0.091 2.121,0.272 0.639,0.182 1.258,0.466 1.859,0.853 0.601,0.387 1.153,0.802 1.659,1.244 0.505,0.442 1.161,1.043 1.967,1.801 0.331,0.284 0.806,0.427 1.421,0.427 0.664,0 1.2,-0.182 1.611,-0.546 0.411,-0.363 0.616,-0.876 0.616,-1.54 0,-0.584 -0.229,-1.267 -0.686,-2.049 -0.459,-0.782 -1.149,-1.533 -2.074,-2.251 -0.924,-0.719 -2.085,-1.315 -3.483,-1.789 -1.398,-0.474 -3.006,-0.711 -4.822,-0.711 -4.154,0 -7.385,1.185 -9.691,3.554 -2.307,2.37 -3.459,5.584 -3.459,9.644 0,1.912 0.284,3.685 0.852,5.32 0.57,1.635 1.399,3.036 2.488,4.205 1.09,1.169 2.433,2.066 4.029,2.69 1.595,0.624 3.364,0.936 5.307,0.936 2.528,0 4.696,-0.533 6.504,-1.599 1.809,-1.067 3.163,-2.445 4.064,-4.135 0.9,-1.691 1.35,-3.412 1.35,-5.166 0,-1.627 -0.465,-2.681 -1.397,-3.163 -0.933,-0.482 -2.243,-0.723 -3.934,-0.723"
             style="fill:#252323;fill-opacity:1;fill-rule:nonzero;stroke:none"
             id="path138"
             inkscape:connector-curvature="0" /></g><g
           id="g140"
           transform="translate(1004.3564,214.8848)"><path
             d="m 0,0 0,28.055 c 0,1.295 0.288,2.275 0.865,2.938 0.576,0.664 1.355,0.995 2.334,0.995 0.98,0 1.769,-0.328 2.369,-0.983 0.601,-0.656 0.901,-1.639 0.901,-2.95 L 6.469,0 c 0,-1.311 -0.304,-2.294 -0.912,-2.95 -0.609,-0.655 -1.395,-0.983 -2.358,-0.983 -0.948,0 -1.718,0.34 -2.31,1.018 C 0.296,-2.235 0,-1.264 0,0"
             style="fill:#252323;fill-opacity:1;fill-rule:nonzero;stroke:none"
             id="path142"
             inkscape:connector-curvature="0" /></g><g
           id="g144"
           transform="translate(549.2437,190.3608)"><path
             d="m 0,0 -4.739,0 0,-10.615 4.739,0 c 1.659,0 3.045,0.174 4.159,0.521 1.113,0.347 1.962,0.916 2.547,1.706 0.584,0.79 0.877,1.825 0.877,3.104 0,1.532 -0.451,2.78 -1.351,3.744 C 5.221,-0.513 3.144,0 0,0 m 1.706,-15.923 -6.445,0 0,-9.833 c 0,-1.407 -0.331,-2.473 -0.995,-3.199 -0.663,-0.727 -1.501,-1.09 -2.512,-1.09 -1.058,0 -1.911,0.359 -2.559,1.078 -0.648,0.719 -0.971,1.773 -0.971,3.163 l 0,26.776 c 0,1.548 0.355,2.653 1.066,3.317 0.711,0.664 1.84,0.995 3.388,0.995 l 9.028,0 c 2.669,0 4.723,-0.205 6.161,-0.616 1.422,-0.395 2.65,-1.051 3.684,-1.966 1.035,-0.917 1.821,-2.038 2.358,-3.365 0.537,-1.327 0.806,-2.82 0.806,-4.479 0,-3.538 -1.09,-6.219 -3.27,-8.044 -2.18,-1.825 -5.426,-2.737 -9.739,-2.737"
             style="fill:#252323;fill-opacity:1;fill-rule:nonzero;stroke:none"
             id="path146"
             inkscape:connector-curvature="0" /></g><g
           id="g148"
           transform="translate(587.1548,163.9648)"><path
             d="m 0,0 0,0.829 c -0.774,-0.979 -1.588,-1.801 -2.44,-2.464 -0.854,-0.663 -1.786,-1.157 -2.796,-1.481 -1.012,-0.323 -2.164,-0.486 -3.46,-0.486 -1.564,0 -2.966,0.324 -4.206,0.972 -1.24,0.648 -2.2,1.54 -2.879,2.677 -0.805,1.375 -1.208,3.349 -1.208,5.924 l 0,12.819 c 0,1.295 0.292,2.263 0.877,2.903 0.584,0.64 1.358,0.959 2.321,0.959 0.98,0 1.77,-0.323 2.37,-0.971 0.6,-0.648 0.9,-1.611 0.9,-2.891 l 0,-10.354 c 0,-1.501 0.127,-2.761 0.38,-3.78 0.252,-1.019 0.706,-1.817 1.362,-2.393 0.655,-0.577 1.544,-0.865 2.666,-0.865 1.09,0 2.117,0.324 3.08,0.972 0.964,0.647 1.667,1.492 2.109,2.535 0.363,0.916 0.545,2.922 0.545,6.018 l 0,7.867 c 0,1.28 0.3,2.243 0.9,2.891 0.6,0.648 1.382,0.971 2.346,0.971 0.963,0 1.737,-0.319 2.322,-0.959 0.584,-0.64 0.877,-1.608 0.877,-2.903 l 0,-18.743 c 0,-1.232 -0.281,-2.156 -0.841,-2.772 -0.561,-0.616 -1.284,-0.924 -2.168,-0.924 -0.885,0 -1.616,0.32 -2.192,0.96 C 0.288,-2.05 0,-1.153 0,0"
             style="fill:#252323;fill-opacity:1;fill-rule:nonzero;stroke:none"
             id="path150"
             inkscape:connector-curvature="0" /></g><g
           id="g152"
           transform="translate(606.915,173.3242)"><path
             d="m 0,0 c 0,-2.575 0.588,-4.553 1.766,-5.936 1.176,-1.382 2.72,-2.073 4.631,-2.073 1.627,0 3.03,0.707 4.207,2.121 1.176,1.413 1.765,3.439 1.765,6.078 0,1.706 -0.245,3.175 -0.735,4.407 C 11.145,5.829 10.449,6.781 9.549,7.452 8.648,8.124 7.598,8.459 6.397,8.459 5.166,8.459 4.067,8.124 3.104,7.452 2.141,6.781 1.382,5.809 0.829,4.538 0.276,3.266 0,1.753 0,0 m -0.308,19.217 0,-9.881 c 1.216,1.264 2.456,2.231 3.72,2.903 1.264,0.671 2.827,1.007 4.692,1.007 2.148,0 4.032,-0.51 5.651,-1.529 1.619,-1.019 2.875,-2.496 3.767,-4.431 0.893,-1.935 1.339,-4.229 1.339,-6.883 0,-1.959 -0.249,-3.756 -0.746,-5.391 -0.498,-1.635 -1.22,-3.053 -2.169,-4.253 -0.947,-1.2 -2.096,-2.129 -3.447,-2.784 -1.351,-0.655 -2.84,-0.983 -4.467,-0.983 -0.995,0 -1.93,0.118 -2.807,0.355 -0.877,0.237 -1.623,0.549 -2.24,0.936 -0.616,0.387 -1.141,0.786 -1.575,1.196 -0.434,0.411 -1.007,1.027 -1.718,1.849 l 0,-0.64 c 0,-1.216 -0.293,-2.137 -0.877,-2.76 -0.585,-0.624 -1.327,-0.936 -2.227,-0.936 -0.916,0 -1.647,0.312 -2.192,0.936 -0.544,0.623 -0.816,1.544 -0.816,2.76 l 0,28.245 c 0,1.311 0.263,2.301 0.792,2.973 0.529,0.671 1.269,1.007 2.216,1.007 0.995,0 1.762,-0.32 2.299,-0.959 0.536,-0.64 0.805,-1.553 0.805,-2.737"
             style="fill:#252323;fill-opacity:1;fill-rule:nonzero;stroke:none"
             id="path154"
             inkscape:connector-curvature="0" /></g><g
           id="g156"
           transform="translate(631.2959,164.249)"><path
             d="m 0,0 0,28.055 c 0,1.295 0.288,2.275 0.865,2.938 0.576,0.664 1.355,0.995 2.334,0.995 0.98,0 1.769,-0.328 2.369,-0.983 0.601,-0.656 0.901,-1.639 0.901,-2.95 L 6.469,0 c 0,-1.311 -0.304,-2.294 -0.912,-2.95 -0.609,-0.655 -1.395,-0.983 -2.358,-0.983 -0.948,0 -1.718,0.34 -2.31,1.018 C 0.296,-2.235 0,-1.264 0,0"
             style="fill:#252323;fill-opacity:1;fill-rule:nonzero;stroke:none"
             id="path158"
             inkscape:connector-curvature="0" /></g><g
           id="g160"
           transform="translate(651.8848,182.9443)"><path
             d="m 0,0 0,-18.695 c 0,-1.296 -0.308,-2.275 -0.924,-2.938 -0.616,-0.664 -1.398,-0.995 -2.346,-0.995 -0.948,0 -1.717,0.339 -2.31,1.018 -0.593,0.679 -0.889,1.651 -0.889,2.915 l 0,18.506 c 0,1.279 0.296,2.243 0.889,2.89 0.593,0.648 1.362,0.972 2.31,0.972 0.948,0 1.73,-0.324 2.346,-0.972 C -0.308,2.054 0,1.153 0,0 m -3.198,6.682 c -0.901,0 -1.671,0.276 -2.311,0.83 -0.639,0.552 -0.96,1.334 -0.96,2.345 0,0.916 0.328,1.671 0.984,2.263 0.655,0.592 1.418,0.889 2.287,0.889 0.837,0 1.579,-0.269 2.226,-0.806 C -0.324,11.666 0,10.884 0,9.857 0,8.862 -0.316,8.084 -0.947,7.523 -1.58,6.962 -2.33,6.682 -3.198,6.682"
             style="fill:#252323;fill-opacity:1;fill-rule:nonzero;stroke:none"
             id="path162"
             inkscape:connector-curvature="0" /></g><g
           id="g164"
           transform="translate(680.3652,168.7749)"><path
             d="m 0,0 c 0,-1.785 -0.435,-3.313 -1.304,-4.585 -0.868,-1.272 -2.152,-2.235 -3.849,-2.891 -1.699,-0.655 -3.765,-0.983 -6.197,-0.983 -2.322,0 -4.312,0.355 -5.971,1.066 -1.658,0.711 -2.883,1.6 -3.673,2.666 -0.79,1.066 -1.185,2.136 -1.185,3.21 0,0.711 0.253,1.319 0.759,1.825 0.505,0.505 1.145,0.758 1.919,0.758 0.679,0 1.2,-0.166 1.564,-0.497 0.363,-0.332 0.71,-0.798 1.042,-1.398 0.664,-1.153 1.457,-2.014 2.381,-2.583 0.925,-0.569 2.184,-0.853 3.78,-0.853 1.296,0 2.358,0.288 3.187,0.865 0.829,0.576 1.244,1.235 1.244,1.978 0,1.138 -0.43,1.967 -1.292,2.488 -0.86,0.521 -2.278,1.019 -4.253,1.493 -2.227,0.553 -4.04,1.133 -5.437,1.742 -1.399,0.608 -2.517,1.409 -3.354,2.405 -0.837,0.995 -1.256,2.219 -1.256,3.672 0,1.295 0.387,2.52 1.162,3.673 0.774,1.153 1.915,2.074 3.423,2.761 1.509,0.687 3.33,1.03 5.462,1.03 1.674,0 3.179,-0.174 4.514,-0.521 1.335,-0.347 2.448,-0.814 3.341,-1.398 0.892,-0.585 1.572,-1.232 2.038,-1.943 0.466,-0.711 0.699,-1.406 0.699,-2.085 0,-0.743 -0.249,-1.351 -0.746,-1.825 C -2.5,9.597 -3.207,9.359 -4.123,9.359 c -0.663,0 -1.229,0.19 -1.694,0.569 -0.466,0.379 -0.999,0.948 -1.6,1.706 -0.489,0.632 -1.065,1.137 -1.729,1.517 -0.664,0.379 -1.564,0.568 -2.702,0.568 -1.169,0 -2.14,-0.248 -2.914,-0.746 -0.774,-0.497 -1.161,-1.118 -1.161,-1.86 0,-0.679 0.284,-1.236 0.853,-1.671 0.569,-0.434 1.335,-0.793 2.299,-1.078 0.962,-0.284 2.29,-0.632 3.98,-1.042 2.006,-0.49 3.645,-1.074 4.917,-1.754 C -2.603,4.889 -1.639,4.087 -0.983,3.163 -0.328,2.239 0,1.185 0,0"
             style="fill:#252323;fill-opacity:1;fill-rule:nonzero;stroke:none"
             id="path166"
             inkscape:connector-curvature="0" /></g><g
           id="g168"
           transform="translate(693.1367,192.3042)"><path
             d="m 0,0 0,-9.597 c 0.82,0.948 1.623,1.698 2.404,2.251 0.783,0.553 1.648,0.968 2.595,1.244 0.948,0.277 1.967,0.415 3.057,0.415 1.642,0 3.1,-0.348 4.372,-1.042 1.271,-0.696 2.27,-1.707 2.997,-3.034 0.458,-0.774 0.766,-1.638 0.924,-2.594 0.158,-0.956 0.237,-2.058 0.237,-3.306 l 0,-12.392 c 0,-1.296 -0.296,-2.275 -0.889,-2.938 -0.592,-0.664 -1.378,-0.995 -2.357,-0.995 -2.133,0 -3.199,1.311 -3.199,3.933 l 0,10.923 c 0,2.069 -0.308,3.661 -0.924,4.775 -0.616,1.113 -1.785,1.67 -3.507,1.67 -1.153,0 -2.191,-0.328 -3.116,-0.983 C 1.67,-12.326 0.979,-13.222 0.521,-14.359 0.173,-15.323 0,-17.037 0,-19.501 l 0,-8.554 c 0,-1.279 -0.289,-2.255 -0.865,-2.926 -0.577,-0.671 -1.379,-1.007 -2.406,-1.007 -2.132,0 -3.198,1.311 -3.198,3.933 l 0,28.055 c 0,1.311 0.281,2.294 0.841,2.95 0.561,0.655 1.347,0.983 2.357,0.983 1.027,0 1.829,-0.331 2.406,-0.995 C -0.289,2.274 0,1.295 0,0"
             style="fill:#252323;fill-opacity:1;fill-rule:nonzero;stroke:none"
             id="path170"
             inkscape:connector-curvature="0" /></g><g
           id="g172"
           transform="translate(723.5596,182.9443)"><path
             d="m 0,0 0,-18.695 c 0,-1.296 -0.308,-2.275 -0.924,-2.938 -0.616,-0.664 -1.398,-0.995 -2.346,-0.995 -0.948,0 -1.717,0.339 -2.31,1.018 -0.593,0.679 -0.889,1.651 -0.889,2.915 l 0,18.506 c 0,1.279 0.296,2.243 0.889,2.89 0.593,0.648 1.362,0.972 2.31,0.972 0.948,0 1.73,-0.324 2.346,-0.972 C -0.308,2.054 0,1.153 0,0 m -3.198,6.682 c -0.901,0 -1.671,0.276 -2.311,0.83 -0.639,0.552 -0.96,1.334 -0.96,2.345 0,0.916 0.328,1.671 0.984,2.263 0.655,0.592 1.418,0.889 2.287,0.889 0.837,0 1.579,-0.269 2.226,-0.806 C -0.324,11.666 0,10.884 0,9.857 0,8.862 -0.316,8.084 -0.947,7.523 -1.58,6.962 -2.33,6.682 -3.198,6.682"
             style="fill:#252323;fill-opacity:1;fill-rule:nonzero;stroke:none"
             id="path174"
             inkscape:connector-curvature="0" /></g><g
           id="g176"
           transform="translate(737.0889,183.0391)"><path
             d="m 0,0 0,-0.782 c 1.137,1.501 2.381,2.603 3.731,3.306 1.351,0.703 2.903,1.054 4.657,1.054 1.706,0 3.23,-0.371 4.573,-1.114 1.342,-0.742 2.346,-1.793 3.009,-3.151 0.426,-0.79 0.703,-1.643 0.829,-2.559 0.127,-0.916 0.19,-2.085 0.19,-3.507 l 0,-12.037 c 0,-1.295 -0.297,-2.274 -0.888,-2.938 -0.593,-0.664 -1.363,-0.995 -2.311,-0.995 -0.964,0 -1.746,0.34 -2.346,1.018 -0.6,0.68 -0.9,1.651 -0.9,2.915 l 0,10.781 c 0,2.133 -0.296,3.764 -0.889,4.893 -0.592,1.13 -1.773,1.695 -3.542,1.695 -1.153,0 -2.204,-0.344 -3.151,-1.031 C 2.014,-3.139 1.318,-4.083 0.876,-5.284 0.561,-6.248 0.402,-8.048 0.402,-10.686 l 0,-8.104 c 0,-1.311 -0.304,-2.294 -0.912,-2.95 -0.608,-0.655 -1.394,-0.983 -2.357,-0.983 -0.933,0 -1.698,0.34 -2.299,1.018 -0.601,0.68 -0.9,1.651 -0.9,2.915 l 0,18.695 c 0,1.233 0.268,2.153 0.805,2.761 0.537,0.608 1.272,0.912 2.204,0.912 0.569,0 1.081,-0.134 1.54,-0.403 C -1.059,2.907 -0.691,2.504 -0.415,1.967 -0.139,1.43 0,0.774 0,0"
             style="fill:#252323;fill-opacity:1;fill-rule:nonzero;stroke:none"
             id="path178"
             inkscape:connector-curvature="0" /></g><g
           id="g180"
           transform="translate(766.54,173.6797)"><path
             d="m 0,0 c 0,-2.622 0.572,-4.605 1.718,-5.947 1.145,-1.343 2.627,-2.014 4.443,-2.014 1.074,0 2.089,0.288 3.045,0.864 0.955,0.577 1.733,1.446 2.334,2.607 0.6,1.161 0.9,2.571 0.9,4.229 0,2.638 -0.581,4.692 -1.742,6.161 C 9.537,7.369 8.009,8.104 6.113,8.104 4.266,8.104 2.784,7.401 1.671,5.995 0.558,4.589 0,2.591 0,0 m 18.743,8.199 0,-18.79 c 0,-2.149 -0.229,-3.997 -0.687,-5.545 -0.458,-1.548 -1.193,-2.828 -2.203,-3.839 -1.012,-1.01 -2.334,-1.761 -3.969,-2.251 -1.636,-0.489 -3.67,-0.734 -6.102,-0.734 -2.227,0 -4.218,0.312 -5.971,0.936 -1.753,0.624 -3.104,1.429 -4.052,2.417 -0.947,0.987 -1.422,2.002 -1.422,3.045 0,0.79 0.268,1.433 0.806,1.931 0.537,0.497 1.184,0.746 1.943,0.746 0.947,0 1.777,-0.419 2.488,-1.256 0.347,-0.426 0.706,-0.857 1.078,-1.291 0.37,-0.435 0.782,-0.806 1.232,-1.114 0.45,-0.308 0.991,-0.537 1.623,-0.687 0.632,-0.15 1.358,-0.225 2.18,-0.225 1.674,0 2.974,0.233 3.898,0.699 0.924,0.466 1.571,1.117 1.943,1.955 0.37,0.837 0.588,1.733 0.652,2.689 0.062,0.955 0.11,2.491 0.141,4.609 -0.995,-1.39 -2.143,-2.449 -3.447,-3.176 -1.303,-0.726 -2.855,-1.089 -4.656,-1.089 -2.164,0 -4.056,0.552 -5.675,1.658 -1.619,1.106 -2.863,2.654 -3.731,4.644 -0.87,1.991 -1.304,4.289 -1.304,6.896 0,1.943 0.264,3.696 0.794,5.26 0.529,1.564 1.283,2.882 2.262,3.957 0.98,1.074 2.11,1.884 3.389,2.429 1.279,0.545 2.686,0.817 4.218,0.817 1.832,0 3.42,-0.351 4.763,-1.054 1.341,-0.703 2.589,-1.805 3.743,-3.306 l 0,0.877 c 0,1.121 0.276,1.99 0.83,2.607 0.553,0.615 1.264,0.924 2.132,0.924 1.248,0 2.077,-0.407 2.488,-1.221 0.41,-0.814 0.616,-1.987 0.616,-3.518"
             style="fill:#252323;fill-opacity:1;fill-rule:nonzero;stroke:none"
             id="path182"
             inkscape:connector-curvature="0" /></g><g
           id="g184"
           transform="translate(832.7412,171.334)"><path
             d="m 0,0 c 0,-2.101 -0.541,-3.989 -1.623,-5.663 -1.082,-1.675 -2.666,-2.985 -4.751,-3.934 -2.085,-0.947 -4.558,-1.421 -7.417,-1.421 -3.428,0 -6.255,0.647 -8.482,1.943 -1.581,0.932 -2.864,2.176 -3.851,3.732 -0.987,1.555 -1.48,3.068 -1.48,4.537 0,0.853 0.295,1.584 0.888,2.192 0.592,0.608 1.346,0.912 2.263,0.912 0.742,0 1.37,-0.236 1.884,-0.711 0.512,-0.473 0.951,-1.176 1.314,-2.108 0.443,-1.106 0.921,-2.03 1.434,-2.772 0.513,-0.743 1.236,-1.355 2.168,-1.837 0.932,-0.482 2.156,-0.723 3.673,-0.723 2.085,0 3.779,0.486 5.083,1.457 1.302,0.972 1.955,2.184 1.955,3.638 0,1.153 -0.353,2.089 -1.055,2.808 -0.703,0.718 -1.611,1.267 -2.725,1.646 -1.114,0.38 -2.603,0.783 -4.466,1.209 -2.497,0.584 -4.585,1.267 -6.268,2.05 -1.683,0.781 -3.018,1.848 -4.004,3.198 -0.988,1.351 -1.481,3.029 -1.481,5.035 0,1.912 0.521,3.61 1.564,5.095 1.042,1.485 2.551,2.626 4.525,3.424 1.975,0.797 4.297,1.196 6.966,1.196 2.133,0 3.978,-0.264 5.533,-0.793 1.556,-0.53 2.847,-1.233 3.874,-2.109 1.027,-0.877 1.778,-1.797 2.251,-2.761 0.474,-0.964 0.711,-1.904 0.711,-2.82 0,-0.837 -0.295,-1.591 -0.888,-2.262 -0.592,-0.672 -1.331,-1.007 -2.216,-1.007 -0.805,0 -1.418,0.201 -1.836,0.604 -0.419,0.403 -0.873,1.062 -1.362,1.978 -0.632,1.311 -1.391,2.334 -2.275,3.069 -0.885,0.735 -2.306,1.102 -4.265,1.102 -1.817,0 -3.282,-0.399 -4.396,-1.197 -1.113,-0.798 -1.67,-1.757 -1.67,-2.879 0,-0.695 0.19,-1.295 0.569,-1.801 0.378,-0.506 0.9,-0.94 1.563,-1.303 0.664,-0.363 1.335,-0.648 2.015,-0.853 0.678,-0.205 1.8,-0.506 3.364,-0.9 1.959,-0.459 3.732,-0.964 5.319,-1.517 C -6.007,8.901 -4.656,8.23 -3.543,7.44 -2.429,6.65 -1.561,5.651 -0.937,4.443 -0.312,3.234 0,1.753 0,0"
             style="fill:#252323;fill-opacity:1;fill-rule:nonzero;stroke:none"
             id="path186"
             inkscape:connector-curvature="0" /></g><g
           id="g188"
           transform="translate(844.6348,175.5518)"><path
             d="M 0,0 11.729,0 C 11.571,2.211 10.975,3.866 9.94,4.964 8.905,6.062 7.543,6.611 5.853,6.611 4.241,6.611 2.919,6.054 1.884,4.94 0.85,3.827 0.222,2.18 0,0 M 12.653,-3.673 0,-3.673 c 0.016,-1.469 0.312,-2.764 0.889,-3.886 0.576,-1.122 1.342,-1.966 2.299,-2.535 0.955,-0.569 2.009,-0.853 3.163,-0.853 0.773,0 1.48,0.091 2.121,0.272 0.639,0.182 1.258,0.466 1.859,0.853 0.601,0.387 1.153,0.802 1.659,1.244 0.505,0.442 1.161,1.043 1.967,1.801 0.331,0.284 0.806,0.427 1.421,0.427 0.664,0 1.2,-0.182 1.611,-0.546 0.411,-0.363 0.616,-0.876 0.616,-1.54 0,-0.584 -0.229,-1.267 -0.686,-2.049 -0.459,-0.782 -1.149,-1.533 -2.074,-2.251 -0.924,-0.719 -2.085,-1.315 -3.483,-1.789 -1.398,-0.474 -3.006,-0.711 -4.822,-0.711 -4.154,0 -7.385,1.185 -9.691,3.554 -2.307,2.37 -3.459,5.584 -3.459,9.644 0,1.912 0.284,3.685 0.852,5.32 0.57,1.635 1.399,3.036 2.488,4.205 1.09,1.169 2.433,2.066 4.029,2.69 1.595,0.624 3.364,0.936 5.307,0.936 2.528,0 4.696,-0.533 6.504,-1.599 1.809,-1.067 3.163,-2.445 4.064,-4.135 0.9,-1.691 1.35,-3.412 1.35,-5.166 0,-1.627 -0.465,-2.681 -1.397,-3.163 -0.933,-0.482 -2.243,-0.723 -3.934,-0.723"
             style="fill:#252323;fill-opacity:1;fill-rule:nonzero;stroke:none"
             id="path190"
             inkscape:connector-curvature="0" /></g><g
           id="g192"
           transform="translate(875.4619,169.6519)"><path
             d="m 0,0 0,-5.403 c 0,-1.311 -0.309,-2.294 -0.925,-2.95 -0.616,-0.655 -1.397,-0.983 -2.346,-0.983 -0.931,0 -1.698,0.332 -2.297,0.995 -0.601,0.664 -0.901,1.643 -0.901,2.938 l 0,18.008 c 0,2.907 1.05,4.36 3.152,4.36 1.074,0 1.847,-0.34 2.322,-1.019 0.474,-0.679 0.734,-1.682 0.781,-3.009 0.775,1.327 1.568,2.33 2.382,3.009 0.813,0.679 1.899,1.019 3.258,1.019 1.358,0 2.678,-0.34 3.957,-1.019 1.279,-0.679 1.919,-1.579 1.919,-2.701 0,-0.79 -0.273,-1.441 -0.818,-1.954 -0.545,-0.514 -1.133,-0.77 -1.764,-0.77 -0.238,0 -0.81,0.145 -1.718,0.437 -0.909,0.293 -1.711,0.439 -2.405,0.439 -0.949,0 -1.723,-0.249 -2.323,-0.746 C 1.674,10.153 1.208,9.415 0.876,8.435 0.545,7.456 0.315,6.291 0.189,4.94 0.062,3.589 0,1.943 0,0"
             style="fill:#252323;fill-opacity:1;fill-rule:nonzero;stroke:none"
             id="path194"
             inkscape:connector-curvature="0" /></g><g
           id="g196"
           transform="translate(895.1982,182.5889)"><path
             d="m 0,0 5.236,-14.69 5.64,15.33 c 0.442,1.232 0.877,2.105 1.304,2.618 0.425,0.513 1.073,0.77 1.942,0.77 0.821,0 1.521,-0.276 2.098,-0.829 0.576,-0.553 0.864,-1.193 0.864,-1.919 0,-0.284 -0.052,-0.616 -0.154,-0.995 -0.103,-0.38 -0.221,-0.735 -0.356,-1.067 -0.134,-0.331 -0.288,-0.711 -0.462,-1.137 L 9.904,-17.321 c -0.174,-0.442 -0.398,-1.003 -0.675,-1.682 -0.276,-0.68 -0.584,-1.26 -0.924,-1.742 -0.34,-0.482 -0.758,-0.857 -1.256,-1.125 -0.497,-0.269 -1.102,-0.403 -1.813,-0.403 -0.916,0 -1.646,0.21 -2.191,0.628 -0.545,0.418 -0.948,0.876 -1.209,1.374 -0.26,0.498 -0.698,1.481 -1.315,2.95 L -5.64,-2.085 c -0.141,0.379 -0.288,0.758 -0.438,1.137 -0.15,0.38 -0.276,0.766 -0.379,1.161 -0.103,0.395 -0.153,0.735 -0.153,1.019 0,0.442 0.133,0.881 0.402,1.315 0.269,0.435 0.64,0.79 1.113,1.067 0.475,0.276 0.988,0.414 1.541,0.414 1.074,0 1.813,-0.308 2.215,-0.924 C -0.936,2.488 -0.49,1.454 0,0"
             style="fill:#252323;fill-opacity:1;fill-rule:nonzero;stroke:none"
             id="path198"
             inkscape:connector-curvature="0" /></g><g
           id="g200"
           transform="translate(924.3662,182.9443)"><path
             d="m 0,0 0,-18.695 c 0,-1.296 -0.308,-2.275 -0.924,-2.938 -0.616,-0.664 -1.398,-0.995 -2.346,-0.995 -0.948,0 -1.717,0.339 -2.31,1.018 -0.593,0.679 -0.889,1.651 -0.889,2.915 l 0,18.506 c 0,1.279 0.296,2.243 0.889,2.89 0.593,0.648 1.362,0.972 2.31,0.972 0.948,0 1.73,-0.324 2.346,-0.972 C -0.308,2.054 0,1.153 0,0 m -3.198,6.682 c -0.901,0 -1.671,0.276 -2.311,0.83 -0.639,0.552 -0.96,1.334 -0.96,2.345 0,0.916 0.328,1.671 0.984,2.263 0.655,0.592 1.418,0.889 2.287,0.889 0.837,0 1.579,-0.269 2.226,-0.806 C -0.324,11.666 0,10.884 0,9.857 0,8.862 -0.316,8.084 -0.947,7.523 -1.58,6.962 -2.33,6.682 -3.198,6.682"
             style="fill:#252323;fill-opacity:1;fill-rule:nonzero;stroke:none"
             id="path202"
             inkscape:connector-curvature="0" /></g><g
           id="g204"
           transform="translate(955.2148,168.3247)"><path
             d="m 0,0 c 0,-0.806 -0.241,-1.667 -0.723,-2.583 -0.481,-0.916 -1.216,-1.789 -2.203,-2.618 -0.987,-0.829 -2.231,-1.497 -3.732,-2.002 -1.501,-0.505 -3.191,-0.758 -5.071,-0.758 -3.997,0 -7.117,1.164 -9.359,3.495 -2.243,2.329 -3.365,5.453 -3.365,9.371 0,2.654 0.514,4.999 1.54,7.037 1.027,2.038 2.512,3.614 4.455,4.727 1.943,1.114 4.265,1.671 6.966,1.671 1.675,0 3.211,-0.245 4.609,-0.735 1.398,-0.489 2.582,-1.122 3.554,-1.895 0.972,-0.774 1.714,-1.6 2.227,-2.476 0.513,-0.877 0.771,-1.694 0.771,-2.453 0,-0.774 -0.289,-1.429 -0.865,-1.967 -0.577,-0.537 -1.276,-0.805 -2.097,-0.805 -0.537,0 -0.983,0.138 -1.339,0.414 -0.355,0.277 -0.755,0.723 -1.197,1.339 -0.79,1.2 -1.615,2.101 -2.476,2.701 -0.861,0.601 -1.955,0.901 -3.282,0.901 -1.911,0 -3.451,-0.746 -4.62,-2.239 C -17.376,9.632 -17.961,7.59 -17.961,5 c 0,-1.217 0.15,-2.334 0.45,-3.353 0.301,-1.019 0.736,-1.888 1.304,-2.606 0.568,-0.72 1.256,-1.265 2.061,-1.636 0.806,-0.371 1.691,-0.556 2.654,-0.556 1.296,0 2.405,0.299 3.329,0.9 0.925,0.6 1.742,1.517 2.453,2.749 0.395,0.726 0.821,1.294 1.279,1.706 0.458,0.41 1.019,0.616 1.683,0.616 0.789,0 1.445,-0.3 1.967,-0.901 C -0.261,1.319 0,0.679 0,0"
             style="fill:#252323;fill-opacity:1;fill-rule:nonzero;stroke:none"
             id="path206"
             inkscape:connector-curvature="0" /></g><g
           id="g208"
           transform="translate(967.2275,175.5518)"><path
             d="M 0,0 11.729,0 C 11.571,2.211 10.975,3.866 9.94,4.964 8.905,6.062 7.543,6.611 5.853,6.611 4.241,6.611 2.919,6.054 1.884,4.94 0.85,3.827 0.222,2.18 0,0 M 12.653,-3.673 0,-3.673 c 0.016,-1.469 0.312,-2.764 0.889,-3.886 0.576,-1.122 1.342,-1.966 2.299,-2.535 0.955,-0.569 2.009,-0.853 3.163,-0.853 0.773,0 1.48,0.091 2.121,0.272 0.639,0.182 1.258,0.466 1.859,0.853 0.601,0.387 1.153,0.802 1.659,1.244 0.505,0.442 1.161,1.043 1.967,1.801 0.331,0.284 0.806,0.427 1.421,0.427 0.664,0 1.2,-0.182 1.611,-0.546 0.411,-0.363 0.616,-0.876 0.616,-1.54 0,-0.584 -0.229,-1.267 -0.686,-2.049 -0.459,-0.782 -1.149,-1.533 -2.074,-2.251 -0.924,-0.719 -2.085,-1.315 -3.483,-1.789 -1.398,-0.474 -3.006,-0.711 -4.822,-0.711 -4.154,0 -7.385,1.185 -9.691,3.554 -2.307,2.37 -3.459,5.584 -3.459,9.644 0,1.912 0.284,3.685 0.852,5.32 0.57,1.635 1.399,3.036 2.488,4.205 1.09,1.169 2.433,2.066 4.029,2.69 1.595,0.624 3.364,0.936 5.307,0.936 2.528,0 4.696,-0.533 6.504,-1.599 1.809,-1.067 3.163,-2.445 4.064,-4.135 0.9,-1.691 1.35,-3.412 1.35,-5.166 0,-1.627 -0.465,-2.681 -1.397,-3.163 -0.933,-0.482 -2.243,-0.723 -3.934,-0.723"
             style="fill:#252323;fill-opacity:1;fill-rule:nonzero;stroke:none"
             id="path210"
             inkscape:connector-curvature="0" /></g><g
           id="g212"
           transform="translate(1012.4609,168.7749)"><path
             d="m 0,0 c 0,-1.785 -0.435,-3.313 -1.304,-4.585 -0.868,-1.272 -2.152,-2.235 -3.849,-2.891 -1.699,-0.655 -3.765,-0.983 -6.197,-0.983 -2.322,0 -4.312,0.355 -5.971,1.066 -1.658,0.711 -2.883,1.6 -3.673,2.666 -0.79,1.066 -1.185,2.136 -1.185,3.21 0,0.711 0.253,1.319 0.759,1.825 0.505,0.505 1.145,0.758 1.919,0.758 0.679,0 1.2,-0.166 1.564,-0.497 0.363,-0.332 0.71,-0.798 1.042,-1.398 0.664,-1.153 1.457,-2.014 2.381,-2.583 0.925,-0.569 2.184,-0.853 3.78,-0.853 1.296,0 2.358,0.288 3.187,0.865 0.829,0.576 1.244,1.235 1.244,1.978 0,1.138 -0.43,1.967 -1.292,2.488 -0.86,0.521 -2.278,1.019 -4.253,1.493 -2.227,0.553 -4.04,1.133 -5.437,1.742 -1.399,0.608 -2.517,1.409 -3.354,2.405 -0.837,0.995 -1.256,2.219 -1.256,3.672 0,1.295 0.387,2.52 1.162,3.673 0.774,1.153 1.915,2.074 3.423,2.761 1.509,0.687 3.33,1.03 5.462,1.03 1.674,0 3.179,-0.174 4.514,-0.521 1.335,-0.347 2.448,-0.814 3.341,-1.398 0.892,-0.585 1.572,-1.232 2.038,-1.943 0.466,-0.711 0.699,-1.406 0.699,-2.085 0,-0.743 -0.249,-1.351 -0.746,-1.825 C -2.5,9.597 -3.207,9.359 -4.123,9.359 c -0.663,0 -1.229,0.19 -1.694,0.569 -0.466,0.379 -0.999,0.948 -1.6,1.706 -0.489,0.632 -1.065,1.137 -1.729,1.517 -0.664,0.379 -1.564,0.568 -2.702,0.568 -1.169,0 -2.14,-0.248 -2.914,-0.746 -0.774,-0.497 -1.161,-1.118 -1.161,-1.86 0,-0.679 0.284,-1.236 0.853,-1.671 0.569,-0.434 1.335,-0.793 2.299,-1.078 0.962,-0.284 2.29,-0.632 3.98,-1.042 2.006,-0.49 3.645,-1.074 4.917,-1.754 C -2.603,4.889 -1.639,4.087 -0.983,3.163 -0.328,2.239 0,1.185 0,0"
             style="fill:#252323;fill-opacity:1;fill-rule:nonzero;stroke:none"
             id="path214"
             inkscape:connector-curvature="0" /></g></g></g></g></svg>