<?xml version="1.0" standalone="no"?>
<!DOCTYPE svg PUBLIC "-//W3C//DTD SVG 20010904//EN"
 "http://www.w3.org/TR/2001/REC-SVG-20010904/DTD/svg10.dtd">
<svg version="1.0" xmlns="http://www.w3.org/2000/svg"
 width="432.000000pt" height="471.000000pt" viewBox="0 0 432.000000 471.000000"
 preserveAspectRatio="xMidYMid meet">
<metadata>
Created by potrace 1.13, written by Peter Selinger 2001-2015
</metadata>
<g transform="translate(0.000000,471.000000) scale(0.100000,-0.100000)"
fill="#000000" stroke="none">
<path d="M2145 4620 c-121 -49 -231 -94 -244 -100 -22 -10 -1 -24 249 -165
150 -85 278 -155 284 -155 17 0 476 202 476 210 0 7 -526 300 -538 300 -4 0
-106 -41 -227 -90z"/>
<path d="M2280 3969 c-140 -61 -256 -112 -258 -114 -3 -2 15 -16 39 -30 24
-14 156 -93 293 -174 l250 -148 105 50 c59 28 171 80 251 118 79 37 146 71
147 76 2 4 -12 16 -30 27 -349 201 -519 297 -530 301 -6 2 -127 -45 -267 -106z"/>
<path d="M3500 2988 c-135 -72 -246 -132 -248 -133 -5 -4 -130 -600 -127 -604
2 -2 118 60 257 137 l253 141 58 291 c32 161 57 294 55 296 -2 2 -114 -56
-248 -128z"/>
<path d="M610 2948 c0 -12 -11 -149 -25 -303 -14 -153 -25 -283 -25 -287 0
-12 514 -349 517 -340 5 15 73 571 73 593 0 20 -40 49 -262 189 -143 91 -265
167 -270 168 -4 2 -8 -7 -8 -20z"/>
<path d="M1970 2943 c0 -4 -27 -156 -60 -338 -57 -318 -59 -331 -41 -346 30
-25 571 -362 575 -358 3 4 145 629 149 658 1 10 -102 78 -280 185 -361 219
-343 208 -343 199z"/>
<path d="M4075 2369 c-126 -71 -235 -135 -241 -142 -11 -11 -136 -598 -130
-605 4 -3 477 276 491 289 11 11 125 589 116 589 -3 0 -109 -59 -236 -131z"/>
<path d="M536 2083 c-9 -109 -19 -236 -23 -283 l-5 -85 197 -133 c108 -74 198
-132 200 -130 2 1 14 88 28 191 14 103 27 190 30 193 3 3 23 -6 44 -20 l38
-26 6 22 c3 13 9 48 12 79 l7 57 -253 166 c-139 91 -256 166 -259 166 -2 0
-12 -89 -22 -197z"/>
<path d="M2786 2000 c-138 -77 -255 -145 -261 -152 -11 -12 -150 -626 -143
-633 3 -3 521 295 533 306 4 5 135 600 135 617 0 8 -41 -13 -264 -138z"/>
<path d="M3223 1640 c-139 -80 -255 -149 -258 -151 -7 -8 -136 -620 -133 -631
2 -4 120 63 264 149 l261 156 63 309 c34 170 61 310 59 312 -2 1 -118 -63
-256 -144z"/>
</g>
</svg>
